<?xml version="1.0" standalone="no"?><!DOCTYPE svg PUBLIC "-//W3C//DTD SVG 1.1//EN" "http://www.w3.org/Graphics/SVG/1.1/DTD/svg11.dtd"><svg class="icon" height="512" viewBox="0 0 1024 1024" version="1.1" xmlns="http://www.w3.org/2000/svg"><path fill="#FFFFFF" d="M801.8 900.8l-34.199999999999996-41.4c90-75.6 142.20000000000002-185.39999999999998 142.20000000000002-304.20000000000005 0-217.79999999999998-178.20000000000002-396-396-396s-396 178.20000000000002-396 396c0 113.4 48.599999999999994 221.4 135 297l-36 41.4C117.79999999999995 807.1999999999998 62 684.8 62 555.2c0-248.40000000000003 201.6-450 450-450s450 201.6 450 450c0 133.2-59.4 259.2-160.2 345.59999999999997z"  /><path fill="#FFFFFF" d="M812.5999999999999 555.2h-53.99999999999999c0-135-109.80000000000001-246.60000000000002-246.60000000000002-246.60000000000002-135 0-246.60000000000002 109.80000000000001-246.60000000000002 246.60000000000002h-53.99999999999999c0-165.6 135-300.6 300.6-300.6s300.6 135 300.6 300.6zM512 729.8c-39.599999999999994 0-72-32.4-72-72s32.4-72 72-72 72 32.4 72 72-32.4 72-72 72z m0-90c-10.799999999999999 0-18 7.199999999999999-18 18s7.199999999999999 18 18 18 18-7.199999999999999 18-18-7.199999999999999-18-18-18z"  /><path fill="#FFFFFF" d="M382.31 496.124l166.734 166.734-38.178 38.178-166.734-166.734z"  /></svg>