<?xml version="1.0" standalone="no"?><!DOCTYPE svg PUBLIC "-//W3C//DTD SVG 1.1//EN" "http://www.w3.org/Graphics/SVG/1.1/DTD/svg11.dtd"><svg class="icon" height="512" viewBox="0 0 1024 1024" version="1.1" xmlns="http://www.w3.org/2000/svg"><path fill="#FFFFFF" d="M941.536 263.008C985.808 339.056 1008 422.08 1008 512.032c0 89.968-22.192 172.944-66.464 249.008-44.272 76.08-104.496 136.224-180.528 180.496C684.928 985.904 601.952 1008 512 1008c-90 0-172.992-22.096-248.992-66.448-76.096-44.288-136.288-104.448-180.56-180.496C38.144 685.008 16 602 16 512.032c0-89.92 22.176-172.976 66.464-249.008 44.272-76.048 104.448-136.24 180.56-180.544C339.008 38.144 422 16 512 16c89.904 0 172.928 22.16 249.008 66.464C837.024 126.784 897.216 186.976 941.536 263.008zM736.208 818.544 205.44 287.824C156.512 353.936 132.016 428.688 132.016 512c0 104.496 37.248 193.968 111.616 268.336 74.368 74.416 163.808 111.616 268.336 111.616C595.296 891.968 670.048 867.472 736.208 818.544zM891.936 512c0-104.464-37.216-193.936-111.6-268.336C705.92 169.248 616.448 132.048 512 132.048c-83.328 0-158.096 24.464-224.24 73.44l530.736 530.688C867.504 670.096 891.936 595.296 891.936 512z" /></svg>