<?xml version="1.0" encoding="UTF-8" standalone="no"?>
<!-- Generator: Adobe Illustrator 15.1.0, SVG Export Plug-In . SVG Version: 6.00 Build 0)  -->

<svg
   xmlns:dc="http://purl.org/dc/elements/1.1/"
   xmlns:cc="http://creativecommons.org/ns#"
   xmlns:rdf="http://www.w3.org/1999/02/22-rdf-syntax-ns#"
   xmlns:svg="http://www.w3.org/2000/svg"
   xmlns="http://www.w3.org/2000/svg"
   xmlns:sodipodi="http://sodipodi.sourceforge.net/DTD/sodipodi-0.dtd"
   xmlns:inkscape="http://www.inkscape.org/namespaces/inkscape"
   version="1.1"
   id="Layer_1"
   x="0px"
   y="0px"
   width="62"
   height="64"
   viewBox="0 0 62 64"
   enable-background="new 0 0 100 100"
   xml:space="preserve"
   sodipodi:docname="Thermometer-25.svg"
   inkscape:version="0.92.3 (2405546, 2018-03-11)"><metadata
   id="metadata9"><rdf:RDF><cc:Work
       rdf:about=""><dc:format>image/svg+xml</dc:format><dc:type
         rdf:resource="http://purl.org/dc/dcmitype/StillImage" /><dc:title></dc:title></cc:Work></rdf:RDF></metadata><defs
   id="defs7" /><sodipodi:namedview
   pagecolor="#ffffff"
   bordercolor="#666666"
   borderopacity="1"
   objecttolerance="10"
   gridtolerance="10"
   guidetolerance="10"
   inkscape:pageopacity="0"
   inkscape:pageshadow="2"
   inkscape:window-width="2560"
   inkscape:window-height="1330"
   id="namedview5"
   showgrid="false"
   inkscape:zoom="2.36"
   inkscape:cx="55.084746"
   inkscape:cy="50"
   inkscape:window-x="-12"
   inkscape:window-y="-12"
   inkscape:window-maximized="1"
   inkscape:current-layer="Layer_1" />
<path
   d="m 30.999,49.997 c -4.418,0 -7.998,-3.58 -7.998,-7.998 0,-2.025 0.758,-3.869 2,-5.279 V 20.002 c 0,-3.313 2.686,-5.999 5.998,-5.999 3.314,0 6,2.686 6,5.999 V 36.72 c 1.24,1.41 2,3.254 2,5.279 0,4.418 -3.582,7.998 -8,7.998 z m 2,-11.443 v -4.293 -10.26 -3.999 c 0,-1.104 -0.895,-2 -2,-2 -1.104,0 -2,0.896 -2,2 v 3.999 10.26 4.293 c -1.189,0.693 -1.998,1.969 -1.998,3.445 0,2.209 1.789,3.998 3.998,3.998 2.209,0 4,-1.789 4,-3.998 0,-1.476 -0.809,-2.752 -2,-3.445 z m -2,6.445 c -1.656,0 -2.998,-1.344 -2.998,-3 0,-1.305 0.836,-2.402 1.998,-2.816 v -5.184 h 2 v 5.184 c 1.162,0.414 2,1.512 2,2.816 0,1.656 -1.344,3 -3,3 z"
   id="path2"
   inkscape:connector-curvature="0"
   style="clip-rule:evenodd;fill-rule:evenodd" />
</svg>